<svg xmlns="http://www.w3.org/2000/svg" width="84" height="84" viewBox="0 0 84 84">
  <g id="グループ_2" data-name="グループ 2" transform="translate(-412 -144)">
    <rect id="長方形_2" data-name="長方形 2" width="84" height="84" transform="translate(412 144)" fill="#282c34"/>
    <path id="パス_2" data-name="パス 2" d="M28.589,9.606a2.465,2.465,0,0,1,.83-1.074,2.7,2.7,0,0,1,1.416-.293q1.416,0,1.819.525a3.916,3.916,0,0,1,.452,2.087l.1,4.688v.269a2.81,2.81,0,0,1-.574,2.014,2.686,2.686,0,0,1-1.941.574A2.756,2.756,0,0,1,28.1,16.54q-.122-.269-.2-.439a5.355,5.355,0,0,0-2.051-2.283,5.862,5.862,0,0,0-3.052-.769,5.783,5.783,0,0,0-3.552,1.013,3.113,3.113,0,0,0-1.355,2.6q0,2.246,6.2,3.54,1.05.22,1.66.342,4.688,1.025,6.787,3.125a7.753,7.753,0,0,1,2.1,5.737,8.333,8.333,0,0,1-3.052,6.921q-3.052,2.429-8.74,2.429a24.143,24.143,0,0,1-3.967-.293,18.325,18.325,0,0,1-3.381-.9,2.5,2.5,0,0,1-.9.916,2.972,2.972,0,0,1-1.416.281,3.085,3.085,0,0,1-2.148-.586A2.891,2.891,0,0,1,10.4,36.1l-.1-5.737V30.09a3.273,3.273,0,0,1,.6-2.246,2.8,2.8,0,0,1,2.087-.635q1.587,0,2.661,2.295.244.562.391.854a6.38,6.38,0,0,0,2.649,2.808,8.577,8.577,0,0,0,4.163.928,5.745,5.745,0,0,0,3.491-.928,3.068,3.068,0,0,0,1.245-2.612q0-2.612-5.64-3.955-1.685-.391-2.661-.659-4.736-1.245-6.567-3.113a6.991,6.991,0,0,1-1.831-5.115,8.522,8.522,0,0,1,3.137-6.824,12.152,12.152,0,0,1,8.118-2.649,15.55,15.55,0,0,1,3.259.342A17.057,17.057,0,0,1,28.589,9.606ZM48.511,14.44v5.615h7.983V14.44H56.1a2.757,2.757,0,0,1-2.014-.684,2.685,2.685,0,0,1-.7-2,2.639,2.639,0,0,1,.72-2.075,3.578,3.578,0,0,1,2.38-.635h6.3a3.474,3.474,0,0,1,2.356.635,2.693,2.693,0,0,1,.7,2.075,2.743,2.743,0,0,1-.671,2,2.635,2.635,0,0,1-1.965.684h-.415V32.653h.415a2.743,2.743,0,0,1,2,.671,2.635,2.635,0,0,1,.684,1.965,2.665,2.665,0,0,1-.708,2.075A3.571,3.571,0,0,1,62.793,38h-6.3a3.622,3.622,0,0,1-2.393-.623,2.66,2.66,0,0,1-.708-2.087,2.608,2.608,0,0,1,.7-1.965,2.787,2.787,0,0,1,2.014-.671h.391v-7.2H48.511v7.2H48.9a2.787,2.787,0,0,1,2.014.671,2.608,2.608,0,0,1,.7,1.965,2.639,2.639,0,0,1-.72,2.075,3.578,3.578,0,0,1-2.38.635h-6.3a3.622,3.622,0,0,1-2.393-.623,2.66,2.66,0,0,1-.708-2.087,2.635,2.635,0,0,1,.684-1.965,2.743,2.743,0,0,1,2-.671h.415V14.44H41.8a2.635,2.635,0,0,1-1.965-.684,2.743,2.743,0,0,1-.671-2,2.693,2.693,0,0,1,.7-2.075,3.474,3.474,0,0,1,2.356-.635h6.3a3.585,3.585,0,0,1,2.368.635,2.614,2.614,0,0,1,.732,2.075,2.685,2.685,0,0,1-.7,2,2.757,2.757,0,0,1-2.014.684Z" transform="translate(417 162)" fill="#62dafb"/>
  </g>
</svg>
