<svg xmlns="http://www.w3.org/2000/svg" width="110" height="51" viewBox="0 0 110 51">
  <g id="グループ_1" data-name="グループ 1" transform="translate(-274 -168)">
    <rect id="長方形_1" data-name="長方形 1" width="110" height="51" transform="translate(274 168)" fill="none"/>
    <path id="パス_1" data-name="パス 1" d="M8.438,3.643a.986.986,0,0,1,.332-.43A1.081,1.081,0,0,1,9.336,3.1q.566,0,.728.21a1.566,1.566,0,0,1,.181.835l.039,1.875v.107a1.124,1.124,0,0,1-.229.806,1.074,1.074,0,0,1-.776.229,1.1,1.1,0,0,1-1.035-.742q-.049-.107-.078-.176a2.142,2.142,0,0,0-.82-.913A2.345,2.345,0,0,0,6.123,5.02,2.313,2.313,0,0,0,4.7,5.425a1.245,1.245,0,0,0-.542,1.04q0,.9,2.48,1.416l.664.137a5.444,5.444,0,0,1,2.715,1.25,3.1,3.1,0,0,1,.84,2.295,3.333,3.333,0,0,1-1.221,2.769,5.5,5.5,0,0,1-3.5.972,9.657,9.657,0,0,1-1.587-.117A7.33,7.33,0,0,1,3.2,14.824a1,1,0,0,1-.361.366,1.189,1.189,0,0,1-.566.112,1.234,1.234,0,0,1-.859-.234,1.157,1.157,0,0,1-.254-.83l-.039-2.295v-.107a1.309,1.309,0,0,1,.239-.9,1.118,1.118,0,0,1,.835-.254q.635,0,1.064.918.1.225.156.342a2.552,2.552,0,0,0,1.06,1.123,3.431,3.431,0,0,0,1.665.371,2.3,2.3,0,0,0,1.4-.371,1.227,1.227,0,0,0,.5-1.045q0-1.045-2.256-1.582-.674-.156-1.064-.264A5.788,5.788,0,0,1,2.09,8.931a2.8,2.8,0,0,1-.732-2.046A3.409,3.409,0,0,1,2.612,4.155,4.861,4.861,0,0,1,5.859,3.1a6.22,6.22,0,0,1,1.3.137A6.823,6.823,0,0,1,8.438,3.643Zm7.988,3.32a2.248,2.248,0,0,1,.967-.908,3.308,3.308,0,0,1,1.494-.312,3.086,3.086,0,0,1,2.378.9A3.65,3.65,0,0,1,22.1,9.219v3.643h.166a.943.943,0,0,1,1.055,1.055,1.077,1.077,0,0,1-.278.83A1.39,1.39,0,0,1,22.1,15H19.678a1.372,1.372,0,0,1-.933-.254,1.077,1.077,0,0,1-.278-.83.932.932,0,0,1,1.055-1.055h.156V10.02a3.466,3.466,0,0,0-.308-1.733A1.147,1.147,0,0,0,18.32,7.8a1.725,1.725,0,0,0-1.338.63,2.308,2.308,0,0,0-.557,1.587v2.842h.156a1.08,1.08,0,0,1,.8.269,1.065,1.065,0,0,1,.269.786,1.066,1.066,0,0,1-.283.83,1.392,1.392,0,0,1-.937.254H14a1.407,1.407,0,0,1-.947-.249,1.087,1.087,0,0,1-.273-.835.943.943,0,0,1,1.055-1.055H14V4.385h-.166a1.077,1.077,0,0,1-.8-.278,1.091,1.091,0,0,1-.278-.806,1.066,1.066,0,0,1,.283-.83A1.428,1.428,0,0,1,14,2.217H15.84a.614.614,0,0,1,.459.137.758.758,0,0,1,.127.508Zm14.941,5.9h2.1a1.47,1.47,0,0,1,.957.244,1.02,1.02,0,0,1,.283.811,1.056,1.056,0,0,1-.288.83,1.431,1.431,0,0,1-.952.254h-6.6a1.431,1.431,0,0,1-.952-.254,1.056,1.056,0,0,1-.288-.83,1.03,1.03,0,0,1,.278-.811,1.467,1.467,0,0,1,.962-.244h2.1V8.115h-1.1a1.412,1.412,0,0,1-.937-.249,1.05,1.05,0,0,1-.283-.825,1.055,1.055,0,0,1,.273-.82,1.427,1.427,0,0,1,.947-.244H30.8a.679.679,0,0,1,.42.112.367.367,0,0,1,.146.308Zm-1.406-11.3a1.236,1.236,0,0,1,.947.273,2.3,2.3,0,0,1,.234,1.309,2.212,2.212,0,0,1-.21,1.235,1.384,1.384,0,0,1-.991.239,1.455,1.455,0,0,1-.981-.225,1.322,1.322,0,0,1-.22-.9A3.48,3.48,0,0,1,28.965,1.9Q29.189,1.562,29.961,1.563ZM46.1,12.842h.127a1.127,1.127,0,0,1,.82.269,1.082,1.082,0,0,1,.273.806,1.077,1.077,0,0,1-.278.83A1.39,1.39,0,0,1,46.1,15H43.7a1.413,1.413,0,0,1-.942-.254,1.056,1.056,0,0,1-.288-.83,1.071,1.071,0,0,1,.278-.806,1.16,1.16,0,0,1,.835-.269H43.7V10.02a3.146,3.146,0,0,0-.327-1.665,1.209,1.209,0,0,0-1.089-.493,1.671,1.671,0,0,0-1.323.591,2.307,2.307,0,0,0-.513,1.567v2.822h.117a1.142,1.142,0,0,1,.83.269,1.082,1.082,0,0,1,.273.806,1.066,1.066,0,0,1-.283.83,1.392,1.392,0,0,1-.937.254H38.027a1.392,1.392,0,0,1-.937-.254,1.066,1.066,0,0,1-.283-.83,1.082,1.082,0,0,1,.273-.806,1.142,1.142,0,0,1,.83-.269h.117V8.115h-.166a1.1,1.1,0,0,1-.8-.269,1.054,1.054,0,0,1-.273-.786,1.066,1.066,0,0,1,.283-.83,1.428,1.428,0,0,1,.957-.254h1.66a.679.679,0,0,1,.415.107.368.368,0,0,1,.142.313v.762A2.931,2.931,0,0,1,41.392,6.1a3.507,3.507,0,0,1,1.616-.356,2.818,2.818,0,0,1,2.329.947A4.543,4.543,0,0,1,46.1,9.58ZM53.33,6.523h2.979a1.47,1.47,0,0,1,.957.244,1.02,1.02,0,0,1,.283.811,1.056,1.056,0,0,1-.288.83,1.431,1.431,0,0,1-.952.254H53.33v2.5a2.359,2.359,0,0,0,.322,1.445A1.4,1.4,0,0,0,54.785,13a4.726,4.726,0,0,0,1.8-.439,4.65,4.65,0,0,1,1.387-.439.9.9,0,0,1,.688.317,1.1,1.1,0,0,1,.288.767q0,.752-1.362,1.372a7.382,7.382,0,0,1-3.091.62,5.223,5.223,0,0,1-1.768-.273,2.8,2.8,0,0,1-1.2-.781,2.342,2.342,0,0,1-.459-.937,8.465,8.465,0,0,1-.137-1.826V8.662H50.01a1.39,1.39,0,0,1-.942-.254,1.077,1.077,0,0,1-.278-.83,1.038,1.038,0,0,1,.273-.815,1.449,1.449,0,0,1,.947-.239h.918V4.238a1.3,1.3,0,0,1,.278-.947,1.694,1.694,0,0,1,1.846,0,1.3,1.3,0,0,1,.278.947Zm16.66,6.338h.156a1.091,1.091,0,0,1,.806.278,1.077,1.077,0,0,1,.278.8,1.026,1.026,0,0,1-.288.815A1.451,1.451,0,0,1,69.99,15h-.918a1.179,1.179,0,0,1-.728-.186,1.36,1.36,0,0,1-.4-.674,6.72,6.72,0,0,1-1.719.82,6.135,6.135,0,0,1-1.836.283,3.639,3.639,0,0,1-2.471-.781,2.687,2.687,0,0,1-.9-2.139,2.616,2.616,0,0,1,1.162-2.275,5.643,5.643,0,0,1,3.262-.811q.469,0,1,.049t1.182.156V9.258A1.9,1.9,0,0,0,67.2,7.92a1.627,1.627,0,0,0-1.255-.459,4.047,4.047,0,0,0-1.646.479,3.971,3.971,0,0,1-1.47.479,1.034,1.034,0,0,1-.742-.269.931.931,0,0,1-.283-.708q0-.791,1.157-1.255a8.678,8.678,0,0,1,3.149-.464,4.444,4.444,0,0,1,2.979.8,3.493,3.493,0,0,1,.9,2.715Zm-2.363-1.885q-.488-.107-.9-.161a5.891,5.891,0,0,0-.762-.054,3.312,3.312,0,0,0-1.685.361,1.11,1.11,0,0,0-.61,1,1.021,1.021,0,0,0,.391.864,1.824,1.824,0,0,0,1.123.3,4.05,4.05,0,0,0,1.27-.2,4.374,4.374,0,0,0,1.172-.605ZM77.568,9.7v3.164h2.3a1.43,1.43,0,0,1,.942.244,1.03,1.03,0,0,1,.278.811,1.077,1.077,0,0,1-.278.83,1.39,1.39,0,0,1-.942.254H74.414a1.428,1.428,0,0,1-.957-.254,1.066,1.066,0,0,1-.283-.83,1.03,1.03,0,0,1,.278-.811,1.467,1.467,0,0,1,.962-.244h.742V8.115h-.42a1.409,1.409,0,0,1-.942-.249,1.061,1.061,0,0,1-.278-.825,1.067,1.067,0,0,1,.269-.82,1.425,1.425,0,0,1,.952-.244h2.08a.661.661,0,0,1,.41.112.367.367,0,0,1,.146.308V7.842A7.915,7.915,0,0,1,79.36,6.211a4.186,4.186,0,0,1,1.987-.488,2.458,2.458,0,0,1,1.533.435,1.4,1.4,0,0,1,.566,1.167,1.222,1.222,0,0,1-.391.933,1.412,1.412,0,0,1-1.006.366,2.282,2.282,0,0,1-1.04-.322,2.242,2.242,0,0,0-.835-.322,2.1,2.1,0,0,0-1.1.42A10.046,10.046,0,0,0,77.568,9.7ZM90.01,7.822a2.529,2.529,0,0,0-1.88.747,2.6,2.6,0,0,0-.737,1.909,2.683,2.683,0,0,0,.737,1.938,2.694,2.694,0,0,0,3.765,0,2.674,2.674,0,0,0,.742-1.938A2.6,2.6,0,0,0,91.9,8.569,2.541,2.541,0,0,0,90.01,7.822Zm0-2.061A5.53,5.53,0,0,1,93.857,7.09,4.38,4.38,0,0,1,95.332,10.5a4.391,4.391,0,0,1-1.475,3.418,6.223,6.223,0,0,1-7.686,0A4.391,4.391,0,0,1,84.7,10.5,4.373,4.373,0,0,1,86.177,7.09,5.52,5.52,0,0,1,90.01,5.762ZM4.4,29.576v2.246H7.6V29.576H7.441a1.1,1.1,0,0,1-.806-.273,1.074,1.074,0,0,1-.278-.8,1.056,1.056,0,0,1,.288-.83,1.431,1.431,0,0,1,.952-.254h2.52a1.39,1.39,0,0,1,.942.254,1.077,1.077,0,0,1,.278.83,1.1,1.1,0,0,1-.269.8,1.054,1.054,0,0,1-.786.273h-.166v7.285h.166a1.1,1.1,0,0,1,.8.269,1.054,1.054,0,0,1,.273.786,1.066,1.066,0,0,1-.283.83,1.428,1.428,0,0,1-.957.254H7.6a1.449,1.449,0,0,1-.957-.249,1.064,1.064,0,0,1-.283-.835,1.043,1.043,0,0,1,.278-.786,1.115,1.115,0,0,1,.806-.269H7.6V33.98H4.4v2.881h.156a1.115,1.115,0,0,1,.806.269,1.043,1.043,0,0,1,.278.786,1.056,1.056,0,0,1-.288.83A1.431,1.431,0,0,1,4.4,39H1.885a1.449,1.449,0,0,1-.957-.249,1.319,1.319,0,0,1-.01-1.621,1.1,1.1,0,0,1,.8-.269h.166V29.576H1.719A1.054,1.054,0,0,1,.933,29.3a1.1,1.1,0,0,1-.269-.8,1.077,1.077,0,0,1,.278-.83,1.39,1.39,0,0,1,.942-.254H4.4a1.434,1.434,0,0,1,.947.254,1.046,1.046,0,0,1,.293.83,1.074,1.074,0,0,1-.278.8,1.1,1.1,0,0,1-.806.273Zm14.961,7.285h2.1a1.47,1.47,0,0,1,.957.244,1.02,1.02,0,0,1,.283.811,1.056,1.056,0,0,1-.288.83,1.431,1.431,0,0,1-.952.254h-6.6a1.431,1.431,0,0,1-.952-.254,1.056,1.056,0,0,1-.288-.83,1.03,1.03,0,0,1,.278-.811,1.467,1.467,0,0,1,.962-.244h2.1V32.115h-1.1a1.412,1.412,0,0,1-.937-.249,1.355,1.355,0,0,1-.01-1.646,1.427,1.427,0,0,1,.947-.244H18.8a.679.679,0,0,1,.42.112.367.367,0,0,1,.146.308Zm-1.406-11.3a1.236,1.236,0,0,1,.947.273,2.3,2.3,0,0,1,.234,1.309,2.212,2.212,0,0,1-.21,1.235,1.384,1.384,0,0,1-.991.239,1.455,1.455,0,0,1-.981-.225,1.322,1.322,0,0,1-.22-.9,3.48,3.48,0,0,1,.225-1.592Q17.188,25.562,17.959,25.563Zm11.6,8.135v3.164h2.3a1.43,1.43,0,0,1,.942.244,1.03,1.03,0,0,1,.278.811,1.077,1.077,0,0,1-.278.83,1.39,1.39,0,0,1-.942.254H26.406a1.428,1.428,0,0,1-.957-.254,1.066,1.066,0,0,1-.283-.83,1.03,1.03,0,0,1,.278-.811,1.467,1.467,0,0,1,.962-.244h.742V32.115h-.42a1.409,1.409,0,0,1-.942-.249,1.375,1.375,0,0,1-.01-1.646,1.425,1.425,0,0,1,.952-.244h2.08a.661.661,0,0,1,.41.112.367.367,0,0,1,.146.308v1.445a7.915,7.915,0,0,1,1.987-1.631,4.186,4.186,0,0,1,1.987-.488,2.458,2.458,0,0,1,1.533.435,1.4,1.4,0,0,1,.566,1.167,1.222,1.222,0,0,1-.391.933,1.412,1.412,0,0,1-1.006.366A2.282,2.282,0,0,1,33,32.3a2.242,2.242,0,0,0-.835-.322,2.1,2.1,0,0,0-1.1.42A10.046,10.046,0,0,0,29.561,33.7ZM42,31.822a2.529,2.529,0,0,0-1.88.747,2.6,2.6,0,0,0-.737,1.909,2.683,2.683,0,0,0,.737,1.938,2.694,2.694,0,0,0,3.765,0,2.674,2.674,0,0,0,.742-1.938,2.6,2.6,0,0,0-.737-1.909A2.541,2.541,0,0,0,42,31.822Zm0-2.061A5.53,5.53,0,0,1,45.85,31.09a4.687,4.687,0,0,1,0,6.826A5.53,5.53,0,0,1,42,39.244a5.516,5.516,0,0,1-3.838-1.328,4.682,4.682,0,0,1,0-6.826A5.52,5.52,0,0,1,42,29.762Zm9.424,9.1a2.068,2.068,0,0,1-.522.3,1.535,1.535,0,0,1-.552.1.7.7,0,0,1-.591-.225,1.468,1.468,0,0,1-.171-.84V36.9a1.487,1.487,0,0,1,.215-.913.9.9,0,0,1,.742-.269,1.082,1.082,0,0,1,.938.557,3.651,3.651,0,0,0,.361.449,3.164,3.164,0,0,0,1.113.645,4.5,4.5,0,0,0,1.445.215,2.034,2.034,0,0,0,1.123-.273.822.822,0,0,0,.42-.713q0-.791-2.256-1.094-.5-.059-.781-.107a5.021,5.021,0,0,1-2.529-.923,2.28,2.28,0,0,1-.83-1.851,2.511,2.511,0,0,1,1-2.129,4.644,4.644,0,0,1,2.842-.752,8.6,8.6,0,0,1,1.3.1,9.758,9.758,0,0,1,1.372.317A1.42,1.42,0,0,1,56.5,29.8a1.111,1.111,0,0,1,.513-.117.754.754,0,0,1,.61.249,1.136,1.136,0,0,1,.21.747v1.2a.914.914,0,0,1-.215.649.789.789,0,0,1-.605.229,3.08,3.08,0,0,1-1.372-.7,3.323,3.323,0,0,0-1.948-.7,2.329,2.329,0,0,0-1.182.249.767.767,0,0,0-.42.688q0,.684,1.758.918.508.059.8.1a6.862,6.862,0,0,1,3.032.962,2.255,2.255,0,0,1,.825,1.9,2.67,2.67,0,0,1-1.089,2.28,5.123,5.123,0,0,1-3.091.806,10.7,10.7,0,0,1-1.5-.1A10.114,10.114,0,0,1,51.426,38.863Zm11.924-3.8a2.686,2.686,0,0,0,.981,1.621,3.19,3.19,0,0,0,1.938.537,5.3,5.3,0,0,0,2.393-.591,5.6,5.6,0,0,1,1.426-.591.742.742,0,0,1,.591.269,1.023,1.023,0,0,1,.229.688q0,.918-1.357,1.582a7.609,7.609,0,0,1-3.359.664,5.534,5.534,0,0,1-3.843-1.328,4.677,4.677,0,0,1,0-6.826,5.534,5.534,0,0,1,3.843-1.328,5.037,5.037,0,0,1,3.5,1.245,3.945,3.945,0,0,1,1.387,3.052.949.949,0,0,1-.278.791,2.06,2.06,0,0,1-1.147.215Zm5.264-1.523a2.134,2.134,0,0,0-.854-1.406,2.986,2.986,0,0,0-1.792-.5,2.843,2.843,0,0,0-1.714.474,2.482,2.482,0,0,0-.9,1.431Z" transform="translate(281 172)" fill="#fff"/>
  </g>
</svg>
