<svg xmlns="http://www.w3.org/2000/svg" width="55.92" height="15.74" viewBox="0 0 55.92 15.74">
  <path id="パス_1" data-name="パス 1" d="M9.56-.12a13.687,13.687,0,0,1,2.32.14v-1.7a15.871,15.871,0,0,1-2.32.14H3.26V-12.96a12.812,12.812,0,0,1,.16-2.36H1.54a12.951,12.951,0,0,1,.16,2.36V-2.44A14.066,14.066,0,0,1,1.54-.06C2.24-.1,2.8-.12,3.72-.12Zm14.6-6.26v4.02a7.131,7.131,0,0,1-4.04,1.12A4.851,4.851,0,0,1,16.4-2.68a7.3,7.3,0,0,1-1.68-5.08c0-4.02,2.02-6.48,5.32-6.48a4.026,4.026,0,0,1,4.2,2.88l1.56-.52a5.689,5.689,0,0,0-1.46-2.28,6.084,6.084,0,0,0-4.28-1.48c-4.26,0-6.98,3.06-6.98,7.88a8.4,8.4,0,0,0,2.46,6.38A6.693,6.693,0,0,0,20.1.1a11.566,11.566,0,0,0,2.98-.38A10.409,10.409,0,0,0,25.8-1.52a12.827,12.827,0,0,1-.14-2.22V-5.58a13.719,13.719,0,0,1,.14-2.26,20.581,20.581,0,0,1-2.12.08H23.1a12.279,12.279,0,0,1-2.18-.12v1.62a10.807,10.807,0,0,1,2.06-.12Zm10.22-7.54h3.1a14.384,14.384,0,0,1,2.36.14v-1.68a14.067,14.067,0,0,1-2.36.14h-7.8a14.1,14.1,0,0,1-2.28-.14v1.68a14.376,14.376,0,0,1,2.3-.14h3.12V-2.38a11.925,11.925,0,0,1-.16,2.26h1.88a12.334,12.334,0,0,1-.16-2.26Zm13.7,11.7a10.329,10.329,0,0,1,.74,2.1h1.42A11.33,11.33,0,0,1,51-2.2l4.08-8.98a13.17,13.17,0,0,0,.86-2.44c-.08.82-.14,1.9-.14,2.46v8.68a13.377,13.377,0,0,1-.16,2.36h1.82a12.675,12.675,0,0,1-.16-2.36V-12.94a13.62,13.62,0,0,1,.16-2.38h-2.3a10.147,10.147,0,0,1-.68,1.98L49.56-2.32,44.62-13.34a9.578,9.578,0,0,1-.66-1.98H41.64a13.767,13.767,0,0,1,.16,2.38V-2.48a13.233,13.233,0,0,1-.16,2.36h1.82a12.675,12.675,0,0,1-.16-2.36v-8.56c0-.48-.08-1.72-.14-2.58a18.439,18.439,0,0,0,.9,2.48Z" transform="translate(-1.54 15.64)" fill="#76ff03"/>
</svg>
